Patient4_TMGait_0pt7_02_left_22_GRF.mot
version=1
nRows=58
nColumns=19
inDegrees=no
endheader
time	F1x	F1y	F1z	M1x	M1y	M1z	F2x	F2y	F2z	M2x	M2y	M2z	EC1x	EC1y	EC1z	EC2x	EC2y	EC2z
25.02	-16.0196	-3.227	-5.1348	1.1782	0.96855	4.7919	-3.4394	762.5547	-77.9636	293.4955	83.3288	804.2757	-0.0592	0.0182	-0.0073	-0.0462	0.0165	0.9585
25.0311	-10.5342	-0.88356	-3.3421	0.29596	0.60946	4.5048	-5.2816	757.5528	-74.5942	291.5543	80.6823	795.8015	-0.0592	0.0182	-0.0073	-0.0462	0.0165	0.9585
25.0423	-6.0268	1.1214	-1.8662	-0.45027	0.29426	4.3861	-6.0004	752.1504	-71.6173	289.5069	77.8516	786.1455	-0.0592	0.0182	-0.0073	-0.0462	0.0165	0.9585
25.0534	-2.6653	2.6679	-0.76186	-1.0248	0.045199	4.372	-5.6009	746.9545	-69.1419	287.5694	74.9494	776.1116	-0.0592	0.0182	-0.0073	-0.0462	0.0165	0.9585
25.0646	-0.42625	3.7687	-0.0048425	-1.4331	-0.15011	4.4493	-4.2764	742.5351	-67.1929	285.9438	72.0999	766.4677	-0.0592	0.0182	-0.0073	-0.0462	0.0165	0.9585
25.0757	0.91312	4.4656	0.45803	-1.6942	-0.2904	4.5344	-2.336	739.3396	-65.7217	284.7831	69.3987	757.865	-0.0592	0.0182	-0.0073	-0.0462	0.0165	0.9585
25.0869	1.5325	4.8528	0.70827	-1.8372	-0.4087	4.6287	-0.056452	737.559	-64.6139	284.1489	66.8724	750.6518	-0.0592	0.0182	-0.0073	-0.0462	0.0165	0.9585
25.098	1.6989	4.9362	0.81225	-1.8699	-0.50452	4.5913	2.3274	737.1425	-63.7692	284.0077	64.537	744.8945	-0.0592	0.0182	-0.0073	-0.0462	0.0165	0.9585
25.1091	1.5378	4.755	0.8261	-1.7986	-0.5988	4.3995	4.7103	737.7567	-63.0389	284.223	62.3136	740.3193	-0.0592	0.0182	-0.0073	-0.0462	0.0165	0.9585
25.1203	1.2465	4.2222	0.79905	-1.5935	-0.68368	3.8512	7.04	738.865	-62.3277	284.5787	60.1412	736.4385	-0.0592	0.0182	-0.0073	-0.0462	0.0165	0.9585
25.1314	0.86691	3.2776	0.74987	-1.225	-0.75926	2.865	9.3649	739.8393	-61.5413	284.8259	57.9205	732.6358	-0.0592	0.0182	-0.0073	-0.0462	0.0165	0.9585
25.1426	0.54079	1.7941	0.71104	-0.64899	-0.81148	1.2215	11.7197	740.0928	-60.6398	284.7306	55.6008	728.3434	-0.0592	0.0182	-0.0073	-0.0462	0.0165	0.9585
25.1537	0.27912	-0.26604	0.6673	0.15367	-0.81734	-1.1106	14.2025	739.2162	-59.6285	284.1242	53.1537	723.1401	-0.0592	0.0182	-0.0073	-0.0462	0.0165	0.9585
25.1649	0.19993	-2.9171	0.61122	1.1782	-0.73484	-4.1973	16.8562	737.0555	-58.5448	282.9342	50.5908	716.8602	-0.0592	0.0182	-0.0073	-0.0462	0.0165	0.9585
25.176	0.31653	-5.9811	0.49453	2.3515	-0.50868	-7.7831	19.7265	733.718	-57.4832	281.1905	47.9772	709.5779	-0.0592	0.0182	-0.0073	-0.0462	0.0165	0.9585
25.1871	0.74184	-9.0594	0.2738	3.5113	-0.052119	-11.4341	22.7665	729.5422	-56.5471	279.0136	45.4185	701.6026	-0.0592	0.0182	-0.0073	-0.0462	0.0165	0.9585
25.1983	1.48	-11.3392	-0.1207	4.3481	0.72391	-14.1386	25.9034	724.9762	-55.8552	276.5728	43.0508	693.3467	-0.0592	0.0182	-0.0073	-0.0462	0.0165	0.9585
25.2094	2.6219	-11.5715	-0.74247	4.3822	1.9183	-14.4257	29.0118	720.5131	-55.4795	274.0596	40.9881	685.2905	-0.0592	0.0182	-0.0073	-0.0462	0.0165	0.9585
25.2206	4.1195	-7.9019	-1.645	2.9197	3.5806	-10.0311	31.978	716.4943	-55.4676	271.6217	39.3199	677.7501	-0.0592	0.0182	-0.0073	-0.0462	0.0165	0.9585
25.2317	5.9419	2.0468	-2.8282	-0.93079	5.6922	1.8828	34.7052	713.0642	-55.8016	269.3377	38.0687	670.8721	-0.0592	0.0182	-0.0073	-0.0462	0.0165	0.9585
25.2429	7.8384	21.1141	-4.2515	-8.22	8.1028	24.7823	37.1685	709.9863	-56.4097	267.1523	37.1807	664.4377	-0.0592	0.0182	-0.0073	-0.0462	0.0165	0.9585
25.254	9.4525	52.0951	-5.7259	-19.9825	10.4393	62.0404	39.3868	706.6068	-57.138	264.8568	36.5146	657.86	-0.0592	0.0182	-0.0073	-0.0462	0.0165	0.9585
25.2651	10.082	97.1244	-6.9364	-36.9894	12.0437	116.287	41.4461	701.7885	-57.7737	262.0702	35.8593	650.0979	-0.0592	0.0182	-0.0073	-0.0462	0.0165	0.9585
25.2763	8.764	156.4706	-7.3042	-59.303	11.8469	187.8682	43.3937	694.0031	-58.0293	258.2643	34.9476	639.7828	-0.0592	0.0182	-0.0073	-0.0462	0.0165	0.9585
25.2874	4.1368	227.4246	-6.1672	-85.8447	8.5547	273.5683	45.2503	681.3599	-57.5857	252.7787	33.5023	625.219	-0.0592	0.0182	-0.0073	-0.0462	0.0165	0.9585
25.2986	-4.4169	303.4585	-2.8015	-114.1013	1.0715	365.5037	46.8782	661.8592	-56.1303	244.9032	31.3125	604.6786	-0.0592	0.0182	-0.0073	-0.0462	0.0165	0.9585
25.3097	-15.6057	375.2473	3.6139	-140.569	-10.9511	452.2213	48.1025	633.6815	-53.4148	233.992	28.2515	576.5755	-0.0592	0.0182	-0.0073	-0.0462	0.0165	0.9585
25.3209	-27.0255	436.3266	12.7134	-162.8751	-26.1191	525.5386	48.6791	595.738	-49.3794	219.6505	24.3801	540.0098	-0.0592	0.0182	-0.0073	-0.0462	0.0165	0.9585
25.332	-37.6787	486.6596	23.0573	-181.0141	-42.3545	585.1578	48.4165	548.036	-44.1503	201.8647	19.893	495.0521	-0.0592	0.0182	-0.0073	-0.0462	0.0165	0.9585
25.3431	-46.6016	529.1855	33.5375	-196.139	-57.9878	634.4861	47.1281	491.6468	-38.089	180.9964	15.1647	442.7418	-0.0592	0.0182	-0.0073	-0.0462	0.0165	0.9585
25.3543	-53.4806	567.0646	42.8789	-209.4965	-71.4083	677.4181	44.7402	428.5195	-31.6366	157.7268	10.5839	384.8584	-0.0592	0.0182	-0.0073	-0.0462	0.0165	0.9585
25.3654	-57.8825	601.9061	50.2985	-221.7333	-81.5499	715.9385	41.1255	361.3452	-25.1755	133.0119	6.4838	323.8402	-0.0592	0.0182	-0.0073	-0.0462	0.0165	0.9585
25.3766	-59.7835	633.311	55.4205	-232.7467	-87.9594	749.7719	36.3537	293.3237	-19.0704	108.0058	3.1205	262.4892	-0.0592	0.0182	-0.0073	-0.0462	0.0165	0.9585
25.3877	-59.2913	660.2166	58.3761	-242.1339	-90.8398	777.6971	30.6108	227.9578	-13.6164	83.9719	0.64528	203.8828	-0.0592	0.0182	-0.0073	-0.0462	0.0165	0.9585
25.3989	-56.7239	681.4376	59.7567	-249.4394	-90.998	798.6056	24.4217	168.4455	-9.0324	62.0815	-0.95472	150.7459	-0.0592	0.0182	-0.0073	-0.0462	0.0165	0.9585
25.41	-52.6129	696.6561	60.0895	-254.5118	-89.2702	812.2566	18.3677	117.3393	-5.4355	43.2611	-1.7975	105.2731	-0.0592	0.0182	-0.0073	-0.0462	0.0165	0.9585
25.4211	-47.5101	706.0645	59.9097	-257.4066	-86.5112	819.1075	13.006	75.8976	-2.7871	27.9911	-2.1097	68.4515	-0.0592	0.0182	-0.0073	-0.0462	0.0165	0.9585
25.4323	-42.0183	710.3744	59.581	-258.382	-83.3952	820.1392	8.541	44.3631	-0.98717	16.363	-2.0458	40.4724	-0.0592	0.0182	-0.0073	-0.0462	0.0165	0.9585
25.4434	-36.6783	710.717	59.2487	-257.8712	-80.3285	816.7026	5.0416	22.0024	0.10599	8.1202	-1.737	20.616	-0.0592	0.0182	-0.0073	-0.0462	0.0165	0.9585
25.4546	-31.7778	708.5942	58.9423	-256.4513	-77.4844	810.6214	2.4203	7.5673	0.64742	2.7995	-1.2844	7.8086	-0.0592	0.0182	-0.0073	-0.0462	0.0165	0.9585
25.4657	-27.4454	705.6094	58.5877	-254.7318	-74.8677	803.6671	0.66369	-0.61604	0.8131	-0.21258	-0.81919	0.52227	-0.0592	0.0182	-0.0073	-0.0462	0.0165	0.9585
25.4769	-23.8104	702.9031	58.3682	-253.1386	-72.7198	797.1952	-0.43519	-4.2979	0.76155	-1.5625	-0.40817	-2.7754	-0.0592	0.0182	-0.0073	-0.0462	0.0165	0.9585
25.488	-20.7813	701.2382	58.4076	-251.9463	-71.1575	791.9927	-0.98124	-5.0601	0.58656	-1.8335	-0.080666	-3.5168	-0.0592	0.0182	-0.0073	-0.0462	0.0165	0.9585
25.4991	-18.4056	700.9437	58.8531	-251.2749	-70.3375	788.4187	-1.1964	-4.1564	0.37351	-1.4879	0.16423	-2.7754	-0.0592	0.0182	-0.0073	-0.0462	0.0165	0.9585
25.5103	-16.5	702.1954	59.6719	-251.1989	-70.1636	786.5805	-1.1743	-2.4922	0.16014	-0.86016	0.33651	-1.3702	-0.0592	0.0182	-0.0073	-0.0462	0.0165	0.9585
25.5214	-14.9996	705.0456	60.7199	-251.7478	-70.4467	786.4976	-1.0551	-0.64972	-0.021828	-0.16705	0.45595	0.2086	-0.0592	0.0182	-0.0073	-0.0462	0.0165	0.9585
25.5326	-13.7326	709.3527	61.8692	-252.8912	-70.9707	787.9184	-0.89741	1.0206	-0.1656	0.46371	0.5379	1.6383	-0.0592	0.0182	-0.0073	-0.0462	0.0165	0.9585
25.5437	-12.5562	714.8896	62.9331	-254.5549	-71.4784	790.5724	-0.74748	2.3849	-0.27281	0.97864	0.5947	2.8171	-0.0592	0.0182	-0.0073	-0.0462	0.0165	0.9585
25.5549	-11.3516	721.161	63.8853	-256.5746	-71.8739	793.8444	-0.62901	3.3878	-0.34255	1.3591	0.62572	3.6976	-0.0592	0.0182	-0.0073	-0.0462	0.0165	0.9585
25.566	-10.0057	727.6835	64.633	-258.778	-72.0101	797.1683	-0.53369	4.0923	-0.38943	1.6234	0.63937	4.3441	-0.0592	0.0182	-0.0073	-0.0462	0.0165	0.9585
25.5771	-8.4079	733.8497	65.1914	-260.9554	-71.8514	799.8247	-0.47834	4.5504	-0.40896	1.7913	0.63159	4.8145	-0.0592	0.0182	-0.0073	-0.0462	0.0165	0.9585
25.5883	-6.5244	739.2427	65.5226	-262.9583	-71.3355	801.3081	-0.42644	4.8462	-0.41538	1.8931	0.60961	5.1675	-0.0592	0.0182	-0.0073	-0.0462	0.0165	0.9585
25.5994	-4.2474	743.551	65.6366	-264.6764	-70.4292	801.2591	-0.40275	5.049	-0.40107	1.9567	0.57367	5.471	-0.0592	0.0182	-0.0073	-0.0462	0.0165	0.9585
25.6106	-1.5863	746.6819	65.5382	-266.0691	-69.1243	799.5663	-0.36977	5.1898	-0.38291	1.9979	0.53479	5.7242	-0.0592	0.0182	-0.0073	-0.0462	0.0165	0.9585
25.6217	1.4921	748.6579	65.2519	-267.1354	-67.4256	796.2723	-0.35861	5.3202	-0.35856	2.0337	0.50495	5.9786	-0.0592	0.0182	-0.0073	-0.0462	0.0165	0.9585
25.6329	4.929	749.6256	64.8302	-267.9095	-65.3998	791.6227	-0.34541	5.3939	-0.33896	2.0543	0.49051	6.1444	-0.0592	0.0182	-0.0073	-0.0462	0.0165	0.9585
25.644	8.6371	749.8206	64.2955	-268.4511	-63.0988	785.9168	-0.36444	5.4169	-0.3335	2.0554	0.50668	6.2465	-0.0592	0.0182	-0.0073	-0.0462	0.0165	0.9585
25.6551	12.5092	749.4669	63.6843	-268.8127	-60.5985	779.5029	-0.36282	5.2712	-0.34046	1.9994	0.53422	6.1195	-0.0592	0.0182	-0.0073	-0.0462	0.0165	0.9585
